<?xml version="1.0" encoding="iso-8859-1"?>
<!-- Generator: Adobe Illustrator 19.0.0, SVG Export Plug-In . SVG Version: 6.00 Build 0)  -->
<svg xmlns="http://www.w3.org/2000/svg" xmlns:xlink="http://www.w3.org/1999/xlink" version="1.1" id="Layer_1" x="0px" y="0px" viewBox="0 0 511.995 511.995" style="enable-background:new 0 0 511.995 511.995;" xml:space="preserve" width="512" height="512">
<g id="XMLID_97_">
	<g id="XMLID_1769_">
		<g id="XMLID_1628_">
			<g id="XMLID_1629_">
				<g id="XMLID_1652_">
					<path id="XMLID_1668_" style="fill:#52EA28;" d="M504.5,151.194v186.593c0,17.831-14.464,32.285-32.295,32.285       c-8.925,0-16.991-3.609-22.834-9.451c-5.842-5.842-9.461-13.919-9.461-22.834v-21.49c0-12.807-10.381-23.188-23.188-23.188       c-6.398,0-12.19,2.598-16.385,6.793c-4.195,4.195-6.793,9.997-6.793,16.395v21.49c0,17.831-14.465,32.285-32.295,32.285h-0.253       c-17.841,0-32.295-14.454-32.295-32.285v-21.49c0-12.17-9.38-22.157-21.308-23.107c-0.617-0.051-1.243-0.081-1.88-0.081       c-6.409,0-12.2,2.598-16.395,6.793c-4.185,4.195-6.782,9.997-6.782,16.395v21.49c0,17.831-14.465,32.285-32.295,32.285       c-8.915,0-16.991-3.609-22.834-9.451c-5.853-5.842-9.461-13.919-9.461-22.834V152.7c0-2.982,0.091-5.943,0.273-8.875       C222.568,68.44,284.682,7.812,361.139,7.822c39.583,0,75.416,16.052,101.363,41.989       C488.449,75.768,504.5,111.601,504.5,151.194z"/>
					<path id="XMLID_1666_" style="fill:#3EB500;" d="M307.394,285.297v7.894c-0.617-0.051-1.243-0.081-1.88-0.081       c-6.409,0-12.2,2.598-16.395,6.793c-4.185,4.195-6.782,9.997-6.782,16.395v21.49c0,17.831-14.465,32.285-32.295,32.285       c-8.915,0-16.991-3.609-22.834-9.451c-5.853-5.842-9.461-13.919-9.461-22.834V152.7c0-2.982,0.091-5.943,0.273-8.875       c15.961,7.591,30.668,17.942,43.525,30.799C291.11,204.19,307.394,243.49,307.394,285.297z"/>
					<path id="XMLID_1658_" style="fill:#3EB500;" d="M504.5,316.928v20.853c0,17.841-14.464,32.295-32.295,32.295       c-8.925,0-16.991-3.619-22.834-9.461c-5.842-5.842-9.461-13.909-9.461-22.834v-20.853c0,8.915,3.619,16.981,9.461,22.824       c5.842,5.842,13.909,9.461,22.834,9.461C490.036,349.213,504.5,334.758,504.5,316.928z"/>
					<path id="XMLID_1657_" style="fill:#3EB500;" d="M393.545,316.928v20.853c0,17.841-14.465,32.295-32.295,32.295h-0.253       c-17.841,0-32.295-14.454-32.295-32.295v-20.853c0,17.83,14.454,32.285,32.295,32.285h0.253       C379.08,349.213,393.545,334.758,393.545,316.928z"/>
					<path id="XMLID_1654_" style="fill:#8AFF64;" d="M503.287,132.518c-6.53-25.553-20.084-48.397-38.542-66.45       c-26.513-25.947-63.145-41.999-103.607-41.999C292.394,24.059,234.991,70.97,219,133.569       C228.289,63.015,288.179,7.816,361.139,7.816c39.583,0.01,75.416,16.051,101.363,41.999       C484.294,71.607,499.112,100.395,503.287,132.518z"/>
				</g>
				<g id="XMLID_1643_">
					<circle id="XMLID_1649_" style="fill:#E4EAF6;" cx="301.683" cy="139.892" r="39.453"/>
					<circle id="XMLID_1646_" style="fill:#48709B;" cx="274.675" cy="139.294" r="12.445"/>
				</g>
				<g id="XMLID_1630_">
					<circle id="XMLID_1640_" style="fill:#E4EAF6;" cx="420.162" cy="139.892" r="39.453"/>
					<circle id="XMLID_1637_" style="fill:#48709B;" cx="393.155" cy="139.294" r="12.445"/>
				</g>
			</g>
		</g>
		<g id="XMLID_913_">
			<g id="XMLID_1541_">
				<g id="XMLID_583_">
					<path id="XMLID_1839_" style="fill:#F28383;" d="M294.249,285.294v186.587c0,17.835-14.458,32.293-32.293,32.293h0       c-17.835,0-32.293-14.458-32.293-32.293v-21.49c0-12.804-10.38-23.184-23.184-23.184h0c-12.804,0-23.184,10.38-23.184,23.184       v21.49c0,17.835-14.458,32.293-32.293,32.293h-0.254c-17.835,0-32.293-14.458-32.293-32.293v-21.49       c0-12.804-10.38-23.184-23.184-23.184h0c-12.804,0-23.184,10.38-23.184,23.184v21.49c0,17.835-14.458,32.293-32.293,32.293h0       c-17.835,0-32.293-14.458-32.293-32.293l0-185.084c0-79.435,63.956-144.887,143.391-144.878       c39.584,0.004,75.419,16.049,101.364,41.995C278.203,209.863,294.249,245.704,294.249,285.294z"/>
					<path id="XMLID_1633_" style="fill:#E94141;" d="M294.254,451.027v20.853c0,17.841-14.464,32.295-32.295,32.295       c-8.925,0-16.991-3.619-22.834-9.461c-5.842-5.842-9.461-13.909-9.461-22.834v-20.853c0,8.915,3.619,16.981,9.461,22.824       c5.842,5.842,13.909,9.461,22.834,9.461C279.79,483.312,294.254,468.857,294.254,451.027z"/>
					<path id="XMLID_1631_" style="fill:#E94141;" d="M183.299,451.027v20.853c0,17.841-14.465,32.295-32.295,32.295h-0.253       c-17.841,0-32.295-14.454-32.295-32.295v-20.853c0,17.831,14.454,32.285,32.295,32.285h0.253       C168.834,483.312,183.299,468.857,183.299,451.027z"/>
					<path id="XMLID_949_" style="fill:#E94141;" d="M72.091,451.027v20.853c0,17.841-14.465,32.295-32.295,32.295       c-8.915,0-16.991-3.619-22.834-9.461c-5.853-5.842-9.461-13.909-9.461-22.834v-20.853c0,8.915,3.609,16.981,9.461,22.824       c5.842,5.842,13.919,9.461,22.834,9.461C57.626,483.312,72.091,468.857,72.091,451.027z"/>
					<path id="XMLID_1595_" style="fill:#FFA9A9;" d="M293.041,266.617c-6.53-25.553-20.084-48.397-38.542-66.45       c-26.513-25.947-63.145-41.999-103.607-41.999c-68.744-0.01-126.148,46.901-142.139,109.5       c9.289-70.554,69.179-125.753,142.139-125.753c39.583,0.01,75.416,16.051,101.363,41.999       C274.048,205.706,288.867,234.494,293.041,266.617z"/>
				</g>
				<g id="XMLID_1525_">
					<circle id="XMLID_334_" style="fill:#E4EAF6;" cx="91.437" cy="273.992" r="39.453"/>
					<circle id="XMLID_332_" style="fill:#48709B;" cx="64.429" cy="273.393" r="12.445"/>
				</g>
				<g id="XMLID_1542_">
					<circle id="XMLID_1557_" style="fill:#E4EAF6;" cx="209.916" cy="273.992" r="39.453"/>
					<circle id="XMLID_1545_" style="fill:#48709B;" cx="182.909" cy="273.393" r="12.445"/>
				</g>
			</g>
		</g>
	</g>
	<g id="XMLID_98_">
		<path id="XMLID_99_" d="M467.805,44.512C439.312,16.02,401.43,0.325,361.138,0.32c-0.008,0-0.01,0-0.017,0    c-40.343,0-78.277,15.94-106.809,44.883c-27.003,27.391-42.466,63.226-43.939,101.469c-13.153-5.656-27.101-9.457-41.394-11.167    c-4.105-0.493-7.846,2.442-8.338,6.556s2.443,7.847,6.557,8.339c29.985,3.588,58.31,17.374,79.753,38.818    c7.921,7.92,14.858,16.82,20.619,26.453c4.944,8.268,17.833,0.594,12.873-7.699c-6.394-10.69-14.093-20.569-22.885-29.361    c-9.645-9.644-20.544-17.893-32.313-24.56v-1.353c0-36.527,14.116-70.964,39.748-96.965    c25.692-26.062,59.829-40.413,96.127-40.413c0.004,0,0.011,0,0.015,0c36.286,0.005,70.402,14.139,96.062,39.799    c25.664,25.663,39.798,59.784,39.798,96.076v67.711c0,4.143,3.357,7.5,7.5,7.5s7.5-3.357,7.5-7.5v-67.711    C511.995,110.896,496.301,73.009,467.805,44.512z"/>
		<path id="XMLID_100_" d="M504.495,245.584c-4.143,0-7.5,3.357-7.5,7.5v84.698c0,13.671-11.122,24.793-24.793,24.793    s-24.793-11.122-24.793-24.793v-21.489c0-16.92-13.765-30.685-30.685-30.685c-16.919,0-30.684,13.765-30.684,30.685v21.489    c0,13.671-11.122,24.793-24.793,24.793h-0.255c-13.67,0-24.792-11.122-24.792-24.793v-21.489c0-16.92-13.765-30.685-30.685-30.685    c-1.271,0-2.527,0.083-3.768,0.233v-0.548c0-14.216-1.982-28.3-5.891-41.86c-1.148-3.981-5.312-6.271-9.284-5.13    c-3.98,1.147-6.276,5.305-5.13,9.284c3.521,12.21,5.305,24.896,5.305,37.706v186.588c0,13.671-11.122,24.793-24.793,24.793    c-13.67,0-24.792-11.122-24.792-24.793v-21.49c0-16.919-13.766-30.684-30.686-30.684c-16.919,0-30.684,13.765-30.684,30.684v21.49    c0,13.671-11.122,24.793-24.793,24.793h-0.254c-13.671,0-24.793-11.122-24.793-24.793v-21.49    c0-16.919-13.765-30.684-30.685-30.684s-30.685,13.765-30.685,30.684v21.49c0,13.671-11.122,24.793-24.793,24.793    S15,485.553,15,471.882V286.798c0-33.697,12.274-66.157,34.563-91.4c22.169-25.107,52.44-41.093,85.238-45.013    c4.113-0.492,7.049-4.225,6.558-8.337c-0.492-4.114-4.242-7.051-8.337-6.558c-36.461,4.357-70.094,22.107-94.703,49.979    C13.608,213.455,0,249.441,0,286.798v185.084c0,21.941,17.851,39.793,39.793,39.793s39.793-17.852,39.793-39.793v-21.49    c0-8.647,7.036-15.684,15.685-15.684s15.685,7.036,15.685,15.684v21.49c0,21.941,17.851,39.793,39.793,39.793h0.254    c21.942,0,39.793-17.852,39.793-39.793v-21.49c0-8.647,7.036-15.684,15.685-15.684s15.685,7.036,15.685,15.684v21.49    c0,21.941,17.851,39.793,39.793,39.793c21.941,0,39.792-17.852,39.792-39.793V301.073c1.221-0.301,2.479-0.465,3.768-0.465    c8.648,0,15.685,7.036,15.685,15.685v21.489c0,21.942,17.851,39.793,39.792,39.793h0.255c21.942,0,39.793-17.851,39.793-39.793    v-21.489c0-8.648,7.035-15.685,15.684-15.685s15.685,7.036,15.685,15.685v21.489c0,21.942,17.851,39.793,39.793,39.793    s39.793-17.851,39.793-39.793v-84.698C511.995,248.941,508.638,245.584,504.495,245.584z"/>
		<path id="XMLID_101_" d="M301.683,186.845c25.89,0,46.953-21.063,46.953-46.952s-21.063-46.953-46.953-46.953    c-25.487,0-46.281,20.418-46.922,45.754c-0.006,0.201-0.031,0.398-0.031,0.601c0,0.067,0.01,0.133,0.01,0.2    c-0.001,0.134-0.01,0.265-0.01,0.399C254.73,165.782,275.793,186.845,301.683,186.845z M274.675,134.35    c2.727,0,4.945,2.218,4.945,4.944s-2.219,4.945-4.945,4.945c-2.685,0-4.867-2.155-4.932-4.825    c0.001-0.107,0.005-0.214,0.008-0.321C269.859,136.461,272.017,134.35,274.675,134.35z M301.683,107.939    c17.619,0,31.953,14.334,31.953,31.953c0,17.618-14.334,31.952-31.953,31.952c-10.386,0-19.628-4.984-25.468-12.684    c10.279-0.791,18.405-9.389,18.405-19.867c0-10.177-7.667-18.583-17.526-19.782C282.96,112.447,291.804,107.939,301.683,107.939z"/>
		<path id="XMLID_119_" d="M420.162,186.845c25.89,0,46.953-21.063,46.953-46.952s-21.063-46.953-46.953-46.953    c-25.487,0-46.281,20.418-46.922,45.754c-0.006,0.201-0.031,0.398-0.031,0.601c0,0.067,0.01,0.133,0.01,0.2    c-0.001,0.134-0.01,0.265-0.01,0.399C373.21,165.782,394.272,186.845,420.162,186.845z M393.154,134.35    c2.727,0,4.945,2.218,4.945,4.944s-2.219,4.945-4.945,4.945c-2.685,0-4.867-2.155-4.932-4.825    c0.001-0.107,0.005-0.214,0.008-0.321C388.338,136.461,390.496,134.35,393.154,134.35z M420.162,107.939    c17.619,0,31.953,14.334,31.953,31.953c0,17.618-14.334,31.952-31.953,31.952c-10.386,0-19.628-4.984-25.468-12.684    c10.279-0.791,18.405-9.389,18.405-19.867c0-10.177-7.667-18.583-17.526-19.782C401.44,112.447,410.284,107.939,420.162,107.939z"/>
		<path id="XMLID_123_" d="M91.437,320.944c25.89,0,46.953-21.063,46.953-46.953s-21.063-46.952-46.953-46.952    c-25.488,0-46.282,20.418-46.922,45.754c-0.006,0.201-0.03,0.397-0.03,0.6c0,0.067,0.01,0.132,0.01,0.199    c-0.001,0.133-0.01,0.265-0.01,0.398C44.484,299.881,65.547,320.944,91.437,320.944z M64.429,268.448    c2.727,0,4.945,2.219,4.945,4.945s-2.219,4.944-4.945,4.944c-2.686,0-4.867-2.154-4.932-4.824c0.001-0.107,0.005-0.214,0.008-0.32    C59.612,270.561,61.771,268.448,64.429,268.448z M91.437,242.039c17.619,0,31.953,14.334,31.953,31.952    c0,17.619-14.334,31.953-31.953,31.953c-10.387,0-19.628-4.985-25.468-12.685c10.279-0.791,18.406-9.389,18.406-19.866    c0-10.177-7.667-18.583-17.525-19.783C72.715,246.546,81.559,242.039,91.437,242.039z"/>
		<path id="XMLID_127_" d="M209.916,320.944c25.89,0,46.953-21.063,46.953-46.953s-21.063-46.952-46.953-46.952    c-25.488,0-46.282,20.418-46.922,45.754c-0.006,0.201-0.03,0.397-0.03,0.6c0,0.067,0.01,0.132,0.01,0.199    c-0.001,0.133-0.01,0.265-0.01,0.398C162.964,299.881,184.026,320.944,209.916,320.944z M182.908,268.448    c2.727,0,4.945,2.219,4.945,4.945s-2.219,4.944-4.945,4.944c-2.686,0-4.867-2.154-4.932-4.824c0.001-0.107,0.005-0.214,0.008-0.32    C178.092,270.561,180.25,268.448,182.908,268.448z M209.916,242.039c17.619,0,31.953,14.334,31.953,31.952    c0,17.619-14.334,31.953-31.953,31.953c-10.387,0-19.628-4.985-25.468-12.685c10.279-0.791,18.406-9.389,18.406-19.866    c0-10.177-7.667-18.583-17.525-19.783C191.194,246.546,200.038,242.039,209.916,242.039z"/>
	</g>
</g>















</svg>
