<?xml version="1.0" encoding="iso-8859-1"?>
<!-- Generator: Adobe Illustrator 18.0.0, SVG Export Plug-In . SVG Version: 6.00 Build 0)  -->
<!DOCTYPE svg PUBLIC "-//W3C//DTD SVG 1.1//EN" "http://www.w3.org/Graphics/SVG/1.1/DTD/svg11.dtd">
<svg version="1.1" id="Capa_1" xmlns="http://www.w3.org/2000/svg" xmlns:xlink="http://www.w3.org/1999/xlink" x="0px" y="0px"
	 viewBox="0 0 512 512" style="enable-background:new 0 0 512 512;" xml:space="preserve">
<g>
	<path style="fill:#3F556B;" d="M464,176c-26.469,0-48,21.531-48,48v40v56c0,8.837-7.163,16-16,16H112c-8.837,0-16-7.163-16-16v-56
		v-40c0-26.469-21.531-48-48-48S0,197.531,0,224c0,20.852,13.387,38.589,32,45.2V280v136c0,17.645,14.351,32,32,32h384
		c17.649,0,32-14.355,32-32V280v-10.8c18.613-6.61,32-24.348,32-45.2C512,197.531,490.469,176,464,176z"/>
	<path style="fill:#3CB44A;" d="M416,264V80c0-22.055-19.383-40-43.203-40H139.195C115.375,40,96,57.945,96,80v184H416z"/>
	<circle style="fill:#0E9247;" cx="208" cy="120" r="16"/>
	<circle style="fill:#0E9247;" cx="304" cy="120" r="16"/>
	<circle style="fill:#0E9247;" cx="208" cy="192" r="16"/>
	<circle style="fill:#0E9247;" cx="304" cy="192" r="16"/>
	<path style="fill:#0E9247;" d="M416,264H96v56c0,8.837,7.163,16,16,16h288c8.837,0,16-7.163,16-16V264z"/>
	<path style="fill:#35495C;" d="M400,336H112c-8.837,0-16-7.163-16-16v128h16v-80c0-8.837,7.163-16,16-16h256
		c8.837,0,16,7.163,16,16v80h16V320C416,328.837,408.837,336,400,336z"/>
	<path style="fill:#35495C;" d="M95.798,228C93.76,252.634,73.159,272,48,272c-5.63,0-10.983-1.069-16-2.854V288h16
		c26.51,0,48-29.49,48-56C96,230.65,95.907,229.322,95.798,228z"/>
	<path style="fill:#35495C;" d="M416.202,228c2.038,24.634,22.638,44,47.798,44c5.63,0,10.983-1.069,16-2.854V288h-16
		c-26.51,0-48-29.49-48-56C416,230.65,416.093,229.322,416.202,228z"/>
	<path style="fill:#04803D;" d="M416,264L416,264c-8.837,0-16,7.163-16,16v32c0,4.418-3.582,8-8,8H96c0,8.837,7.163,16,16,16h288
		c8.837,0,16-7.164,16-16.001V264z"/>
	<path style="fill:#35495C;" d="M356.422,464.845C358.39,468.78,363.6,472,368,472h24c4.4,0,8-3.6,8-8v-16h-52L356.422,464.845z"/>
	<path style="fill:#35495C;" d="M112,448v16c0,4.4,3.6,8,8,8h24c4.4,0,9.609-3.22,11.578-7.155L164,448H112z"/>
</g>
<g>
</g>
<g>
</g>
<g>
</g>
<g>
</g>
<g>
</g>
<g>
</g>
<g>
</g>
<g>
</g>
<g>
</g>
<g>
</g>
<g>
</g>
<g>
</g>
<g>
</g>
<g>
</g>
<g>
</g>
</svg>
