<?xml version="1.0" encoding="iso-8859-1"?>
<!-- Generator: Adobe Illustrator 19.0.0, SVG Export Plug-In . SVG Version: 6.00 Build 0)  -->
<svg version="1.1" id="Capa_1" xmlns="http://www.w3.org/2000/svg" xmlns:xlink="http://www.w3.org/1999/xlink" x="0px" y="0px"
	 viewBox="0 0 496 496" style="enable-background:new 0 0 496 496;" xml:space="preserve">
<path style="fill:#589137;" d="M488,184l-80-80l-88-16c0,34.4-32,63.2-72,63.2s-72-28-72-63.2l-88,16L8,184l64,64l32-32v272h224
	l64-64V216l32,32L488,184z"/>
<path d="M328,496H104c-4.8,0-8-3.2-8-8V216h16v264h212.8l59.2-59.2V216h16v208c0,2.4-0.8,4-2.4,5.6l-64,64
	C332,495.2,330.4,496,328,496z"/>
<path style="fill:#3E606F;" d="M40,424h176c17.6,0,32,14.4,32,32l0,0c0,17.6-14.4,32-32,32H40c-17.6,0-32-14.4-32-32l0,0
	C8,438.4,22.4,424,40,424z"/>
<path d="M216,496H40c-22.4,0-40-17.6-40-40s17.6-40,40-40h176c22.4,0,40,17.6,40,40S238.4,496,216,496z M40,432
	c-13.6,0-24,10.4-24,24s10.4,24,24,24h176c13.6,0,24-10.4,24-24s-10.4-24-24-24H40z"/>
<path style="fill:#91AAB4;" d="M40,360h176c17.6,0,32,14.4,32,32l0,0c0,17.6-14.4,32-32,32H40c-17.6,0-32-14.4-32-32l0,0
	C8,374.4,22.4,360,40,360z"/>
<path d="M216,432H40c-22.4,0-40-17.6-40-40s17.6-40,40-40h176c22.4,0,40,17.6,40,40S238.4,432,216,432z M40,368
	c-13.6,0-24,10.4-24,24s10.4,24,24,24h176c13.6,0,24-10.4,24-24s-10.4-24-24-24H40z"/>
<path style="fill:#3E606F;" d="M40,296h176c17.6,0,32,14.4,32,32l0,0c0,17.6-14.4,32-32,32H40c-17.6,0-32-14.4-32-32l0,0
	C8,310.4,22.4,296,40,296z"/>
<path d="M216,368H40c-22.4,0-40-17.6-40-40s17.6-40,40-40h176c22.4,0,40,17.6,40,40S238.4,368,216,368z M40,304
	c-13.6,0-24,10.4-24,24s10.4,24,24,24h176c13.6,0,24-10.4,24-24s-10.4-24-24-24H40z"/>
<path d="M185.6,112l-3.2-16L240,81.6V72c0-4.8,3.2-8,8-8c13.6,0,24-10.4,24-24s-10.4-24-24-24s-24,10.4-24,24h-16
	c0-22.4,17.6-40,40-40s40,17.6,40,40c0,19.2-13.6,35.2-32,39.2V88c0,4-2.4,7.2-6.4,8L185.6,112z"/>
<path d="M424,256c-2.4,0-4-0.8-5.6-2.4l-56-56l11.2-11.2l50.4,50.4l52.8-52.8L404,111.2l-76.8-13.6c-5.6,34.4-38.4,61.6-79.2,61.6
	s-74.4-27.2-79.2-61.6L92,111.2L19.2,184L72,236.8l50.4-50.4l11.2,11.2l-56,56c-3.2,3.2-8,3.2-11.2,0l-64-64c-3.2-3.2-3.2-8,0-11.2
	l80-80c0.8-0.8,2.4-1.6,4-2.4l88-16c2.4-0.8,4.8,0,6.4,1.6c1.6,1.6,3.2,4,3.2,6.4c0,30.4,28.8,55.2,64,55.2s64-24.8,64-55.2
	c0-4.8,3.2-8,8-8c0.8,0,0.8,0,1.6,0l88,16c1.6,0,3.2,0.8,4,2.4l80,80c3.2,3.2,3.2,8,0,11.2l-64,64C428,255.2,426.4,256,424,256z"/>
<polygon style="fill:#406928;" points="328,488 392,424 328,424 "/>
<path d="M328,496c-0.8,0-2.4,0-3.2-0.8c-3.2-0.8-4.8-4-4.8-7.2v-64c0-4.8,3.2-8,8-8h64c4.8,0,8,3.2,8,8c0,2.4-0.8,4-2.4,5.6l-64,64
	C332,495.2,330.4,496,328,496z M336,432v36.8l36.8-36.8H336z"/>
<rect x="271.987" y="63.209" transform="matrix(-0.2425 0.9701 -0.9701 -0.2425 441.0277 -152.3382)" width="15.999" height="65.597"/>
<rect x="32" y="320" width="192" height="16"/>
<rect x="32" y="384" width="184" height="16"/>
<rect x="32" y="448" width="184" height="16"/>
<g>
</g>
<g>
</g>
<g>
</g>
<g>
</g>
<g>
</g>
<g>
</g>
<g>
</g>
<g>
</g>
<g>
</g>
<g>
</g>
<g>
</g>
<g>
</g>
<g>
</g>
<g>
</g>
<g>
</g>
</svg>
