<?xml version="1.0" encoding="iso-8859-1"?>
<!-- Generator: Adobe Illustrator 19.0.0, SVG Export Plug-In . SVG Version: 6.00 Build 0)  -->
<svg version="1.1" id="Capa_1" xmlns="http://www.w3.org/2000/svg" xmlns:xlink="http://www.w3.org/1999/xlink" x="0px" y="0px"
	 viewBox="0 0 512 512" style="enable-background:new 0 0 512 512;" xml:space="preserve">
<path style="fill:#5FCCEB;" d="M327.64,364.132c12.281-5.085,23.788-12.613,33.772-22.597c40.694-40.693,40.694-106.672,0-147.366
	s-106.672-40.693-147.366,0c-9.984,9.984-17.512,21.492-22.597,33.772c-34.898-0.019-69.803,13.284-96.429,39.911
	c-53.215,53.215-53.215,139.494,0,192.709s139.494,53.215,192.709,0C314.355,433.935,327.659,399.031,327.64,364.132z"/>
<path style="fill:#37BFE5;" d="M361.412,194.17c-3.862-3.862-7.951-7.353-12.224-10.482c28.928,40.688,25.159,97.486-11.323,133.969
	c-9.983,9.983-21.492,17.512-33.772,22.597c0.019,34.898-13.284,69.803-39.911,96.429c-49.44,49.44-127.415,52.937-180.903,10.512
	c3.575,4.644,7.486,9.113,11.741,13.368c53.215,53.215,139.494,53.215,192.709,0c26.626-26.627,39.93-61.531,39.911-96.429
	c12.281-5.085,23.788-12.613,33.772-22.597C402.106,300.841,402.106,234.863,361.412,194.17z"/>
<rect x="312.351" y="58.874" transform="matrix(-0.7071 -0.7071 0.7071 -0.7071 438.63 604.0258)" style="fill:#A9A594;" width="64.125" height="304.592"/>
<circle style="fill:#8D8770;" cx="208.377" cy="347.198" r="56.11"/>
<circle style="fill:#7E785E;" cx="208.377" cy="347.198" r="33.036"/>
<g>
	<ellipse style="fill:#FFC67C;" cx="408.297" cy="404.29" rx="24.047" ry="16.031"/>
	<ellipse style="fill:#FFC67C;" cx="480.438" cy="388.259" rx="24.047" ry="16.031"/>
	<ellipse style="fill:#FFC67C;" cx="247.984" cy="107.711" rx="24.047" ry="16.031"/>
	<ellipse style="fill:#FFC67C;" cx="320.125" cy="91.679" rx="24.047" ry="16.031"/>
	<ellipse style="fill:#FFC67C;" cx="31.562" cy="211.914" rx="24.047" ry="16.031"/>
	<ellipse style="fill:#FFC67C;" cx="103.703" cy="195.883" rx="24.047" ry="16.031"/>
</g>
<path d="M389.596,221.956l39.83-39.83l11.69,11.69c3.057,3.055,8.218,2.852,11.028-0.431c2.518-2.942,2.337-7.461-0.399-10.197
	l-11.69-11.69l6.375-6.375l11.69,11.69c3.057,3.055,8.218,2.852,11.028-0.431c2.518-2.942,2.337-7.461-0.399-10.197l-11.69-11.69
	l6.375-6.375l11.69,11.69c3.057,3.055,8.218,2.852,11.028-0.431c2.518-2.942,2.337-7.461-0.399-10.197l-11.69-11.69l6.022-6.022
	c2.935-2.936,2.935-7.693,0-10.628l-45.344-45.344c-2.895-2.893-7.733-2.893-10.628,0l-6.022,6.022l-11.69-11.69
	c-2.936-2.934-7.693-2.934-10.628,0c-2.935,2.936-2.935,7.693,0,10.628l11.69,11.69l-6.375,6.375l-11.69-11.69
	c-2.936-2.934-7.693-2.934-10.628,0c-2.935,2.936-2.935,7.693,0,10.628l11.69,11.69l-6.376,6.376l-11.689-11.69
	c-2.935-2.935-7.693-2.936-10.627-0.001c-2.936,2.935-2.936,7.693-0.001,10.627l11.69,11.69l-39.831,39.831
	c-42.186-19.011-92.001-10.021-124.893,22.87c-9.27,9.271-16.729,19.899-22.218,31.653c-36.583,1.205-70.798,16.021-96.808,42.03
	c-56.059,56.06-56.059,147.277,0,203.337c27.157,27.157,63.264,42.112,101.669,42.112c38.406,0,74.513-14.956,101.67-42.112
	c26.009-26.01,40.824-60.224,42.031-96.807c11.751-5.49,22.38-12.948,31.652-22.219C399.45,314.124,408.563,264.073,389.596,221.956
	z M356.098,336.221c-9.053,9.054-19.595,16.108-31.332,20.969c-2.81,1.163-4.642,3.906-4.64,6.948
	c0.019,34.418-13.374,66.775-37.711,91.111c-24.318,24.318-56.65,37.712-91.041,37.712c-34.39,0-66.722-13.392-91.04-37.712
	c-50.201-50.2-50.201-131.882,0-182.082c24.32-24.32,56.645-37.71,91.037-37.71c0.023,0.001,0.043,0.017,0.078,0
	c3.039,0,5.78-1.832,6.944-4.64c4.861-11.74,11.916-22.282,20.968-31.333c27.097-27.096,67.466-35.454,102.775-22.008
	l-21.729,21.729c-2.935,2.936-2.935,7.693,0,10.628c2.936,2.934,7.693,2.934,10.628,0L429.427,91.438l34.716,34.716L267.237,323.058
	c-3.101-7.588-7.721-14.695-13.871-20.845c-6.15-6.15-13.257-10.77-20.845-13.871l53.963-53.962c2.935-2.936,2.935-7.693,0-10.628
	c-2.935-2.934-7.692-2.934-10.628,0l-60.28,60.279c-18.6-2.1-37.955,3.949-52.19,18.183c-24.806,24.807-24.806,65.171,0,89.978
	c12.017,12.017,27.995,18.636,44.989,18.636c16.995,0,32.972-6.618,44.99-18.635c14.245-14.246,20.293-33.62,18.178-52.233
	c0.171-0.143,0.34-0.292,0.501-0.453l106.058-106.058C391.503,268.723,383.055,309.263,356.098,336.221z M242.74,312.842
	c9.179,9.178,14.234,21.381,14.234,34.361s-5.055,25.183-14.234,34.361c-9.178,9.179-21.382,14.234-34.362,14.234
	c-12.98,0-25.183-5.055-34.361-14.234c-9.179-9.178-14.233-21.381-14.233-34.361s5.054-25.183,14.233-34.361
	c9.473-9.473,21.917-14.211,34.361-14.211S233.267,303.369,242.74,312.842z"/>
<path d="M508.88,302.001c-1.96-1.413-4.479-1.797-6.771-1.033l-72.141,24.047c-3.069,1.023-5.138,3.895-5.138,7.129v51.98
	c-4.78-2.153-10.428-3.385-16.532-3.385c-17.698,0-31.562,10.342-31.562,23.546s13.864,23.546,31.562,23.546
	s31.562-10.342,31.562-23.546V337.56l57.112-19.037v49.57c-4.78-2.153-10.428-3.385-16.532-3.385
	c-17.698,0-31.562,10.342-31.562,23.546s13.864,23.546,31.562,23.546S512,401.457,512,388.254v-80.157
	C512,305.681,510.839,303.414,508.88,302.001z M408.297,412.802c-10.092,0-16.532-5.044-16.532-8.517
	c0-3.473,6.441-8.517,16.532-8.517s16.532,5.044,16.532,8.517C424.83,407.758,418.389,412.802,408.297,412.802z M480.438,396.77
	c-10.092,0-16.532-5.044-16.532-8.517c0-3.473,6.441-8.517,16.532-8.517s16.532,5.044,16.532,8.517
	C496.971,391.726,490.53,396.77,480.438,396.77z"/>
<path d="M247.984,131.252c17.698,0,31.562-10.342,31.562-23.546V40.981l57.112-19.037v49.57c-4.78-2.153-10.428-3.385-16.532-3.385
	c-17.698,0-31.562,10.342-31.562,23.546s13.864,23.546,31.562,23.546s31.562-10.342,31.562-23.546V11.519
	c0-5.041-5.101-8.724-9.891-7.129l-72.141,24.047c-3.069,1.023-5.138,3.895-5.138,7.129v51.98
	c-4.78-2.153-10.428-3.385-16.532-3.385c-17.698,0-31.562,10.342-31.562,23.546S230.287,131.252,247.984,131.252z M320.125,100.191
	c-10.092,0-16.532-5.044-16.532-8.517s6.441-8.517,16.532-8.517s16.532,5.044,16.532,8.517S330.217,100.191,320.125,100.191z
	 M247.984,99.189c10.092,0,16.532,5.044,16.532,8.517s-6.441,8.517-16.532,8.517s-16.532-5.044-16.532-8.517
	S237.893,99.189,247.984,99.189z"/>
<path d="M63.123,211.909v-66.725l57.112-19.037v49.57c-4.78-2.153-10.428-3.385-16.532-3.385c-17.698,0-31.562,10.342-31.562,23.546
	s13.864,23.546,31.562,23.546s31.562-10.342,31.562-23.546v-80.157c0-5.042-5.101-8.723-9.891-7.129l-72.141,24.047
	c-3.069,1.023-5.138,3.895-5.138,7.129v51.98c-4.78-2.153-10.428-3.385-16.532-3.385C13.864,188.363,0,198.705,0,211.909
	s13.864,23.546,31.562,23.546S63.123,225.113,63.123,211.909z M103.703,204.394c-10.092,0-16.532-5.044-16.532-8.517
	c0-3.473,6.441-8.517,16.532-8.517s16.532,5.044,16.532,8.517C120.235,199.351,113.794,204.394,103.703,204.394z M31.562,220.426
	c-10.092,0-16.532-5.044-16.532-8.517c0-3.473,6.441-8.517,16.532-8.517s16.532,5.044,16.532,8.517
	C48.094,215.382,41.653,220.426,31.562,220.426z"/>
<g>
</g>
<g>
</g>
<g>
</g>
<g>
</g>
<g>
</g>
<g>
</g>
<g>
</g>
<g>
</g>
<g>
</g>
<g>
</g>
<g>
</g>
<g>
</g>
<g>
</g>
<g>
</g>
<g>
</g>
</svg>
