<?xml version="1.0" encoding="iso-8859-1"?>
<!-- Generator: Adobe Illustrator 19.0.0, SVG Export Plug-In . SVG Version: 6.00 Build 0)  -->
<svg version="1.1" id="Capa_1" xmlns="http://www.w3.org/2000/svg" xmlns:xlink="http://www.w3.org/1999/xlink" x="0px" y="0px"
	 viewBox="0 0 512 512" style="enable-background:new 0 0 512 512;" xml:space="preserve">
<path style="fill:#C9C6CA;" d="M313.062,268.9l-45.676-17.97H105.252L59.576,268.9c-17.514,6.89-28.747,24.112-27.994,42.917
	l6.112,152.603h297.251l6.112-152.603C341.809,293.011,330.576,275.79,313.062,268.9z"/>
<polygon style="fill:#6E4B53;" points="175.557,280.048 166.128,464.42 206.509,464.42 197.081,280.048 "/>
<rect x="134.729" y="191.741" style="fill:#E6AF78;" width="103.171" height="88.441"/>
<path style="fill:#5C414B;" d="M186.318,7.729c-36.795,1.989-57.729,22.109-57.729,22.109s-30.707,0-30.707,36.848
	c0,29.479,7.37,58.726,7.37,58.726h169.503C289.494,44.346,254.488,4.044,186.318,7.729z"/>
<path style="fill:#503441;" d="M151.918,87.66c-40.081-24.049-23.329-57.821-23.329-57.821s-30.707,0-30.707,36.848
	c0,29.479,7.37,58.726,7.37,58.726H142.1L151.918,87.66z"/>
<path style="fill:#F0C087;" d="M267.385,118.044h-7.37l-12.284-22.416c-66.326,13.818-95.814-7.968-95.814-7.968
	c-16.032,24.048-32.065,40.081-32.065,40.081L105,118.044c-0.004,0-0.007,0.002-0.011,0.002c-0.803,0.015-1.624,0.099-2.46,0.26
	c-7.179,1.381-12.018,8.24-12.018,15.551v5.341c0,7.05,4.515,13.7,11.381,15.302c1.545,0.361,3.049,0.462,4.489,0.348
	c3.664-0.292,6.863,2.374,7.523,5.99c6.265,34.338,36.265,60.382,72.413,60.382s66.148-26.044,72.413-60.382
	c0.636-3.482,3.642-6.019,7.134-5.945h1.519c8.14,0,14.739-6.599,14.739-14.739v-7.37
	C282.125,124.643,275.526,118.044,267.385,118.044z"/>
<path style="fill:#DBD9DC;" d="M70.191,319.045l-32.063-32.063c-4.473,7.299-6.906,15.867-6.547,24.835l6.112,152.603h45.449
	V350.312C83.142,338.585,78.483,327.337,70.191,319.045z"/>
<polygon style="fill:#5C414B;" points="199.13,320.128 197.08,280.048 175.557,280.048 173.507,320.128 "/>
<g>
	<path style="fill:#DBD9DC;" d="M186.318,280.408l-58.957-51.588l-22.109,22.109l34.245,51.367
		c5.159,7.739,16.109,8.823,22.686,2.246L186.318,280.408z"/>
	<path style="fill:#DBD9DC;" d="M186.318,280.408l58.957-51.588l22.109,22.109l-34.245,51.367
		c-5.159,7.739-16.109,8.823-22.686,2.246L186.318,280.408z"/>
</g>
<path style="fill:#E6AF78;" d="M142.1,147.522V101.44c-12.152,16.138-22.247,26.3-22.247,26.3l-14.852-9.697
	c-0.004,0-0.006,0.002-0.011,0.002c-0.803,0.015-1.623,0.099-2.459,0.26c-7.179,1.381-12.018,8.24-12.018,15.55v5.341
	c0,7.05,4.515,13.7,11.38,15.302c1.545,0.361,3.049,0.462,4.489,0.348c3.665-0.293,6.862,2.374,7.523,5.99
	c6.266,34.338,36.265,60.382,72.413,60.382c5.01,0,9.884-0.547,14.612-1.5l0,0C167.355,212.841,142.1,183.132,142.1,147.522z"/>
<path style="fill:#6E4B53;" d="M247.983,368.225v113.042c0,12.831,10.402,23.233,23.233,23.233h177.987
	c12.831,0,23.233-10.402,23.233-23.233V368.225H247.983z"/>
<path style="fill:#825A5A;" d="M360.208,432.354c14.055,0,27.546-1.161,40.083-3.295l32.056-8.278
	c29.209-10.562,48.103-27.38,48.103-46.322v-22.267c0-13.282-10.767-24.048-24.048-24.048H264.015
	c-13.282,0-24.048,10.767-24.048,24.048v22.267c0,18.942,18.894,35.76,48.103,46.322l32.056,8.278
	C332.663,431.194,346.154,432.354,360.208,432.354z"/>
<g>
	<path style="fill:#C9C6CA;" d="M304.096,448.387L304.096,448.387c-8.854,0-16.032-7.178-16.032-16.032v-24.048h32.065v24.048
		C320.128,441.21,312.95,448.387,304.096,448.387z"/>
	<path style="fill:#C9C6CA;" d="M416.322,448.387L416.322,448.387c-8.854,0-16.032-7.178-16.032-16.032v-24.048h32.065v24.048
		C432.355,441.21,425.177,448.387,416.322,448.387z"/>
</g>
<g>
	<path style="fill:#DBD9DC;" d="M288.063,428.013v4.342c0,8.854,7.179,16.032,16.032,16.032c8.854,0,16.032-7.178,16.032-16.032
		v-4.342H288.063z"/>
	<path style="fill:#DBD9DC;" d="M400.29,428.013v4.342c0,8.854,7.178,16.032,16.032,16.032s16.032-7.178,16.032-16.032v-4.342
		H400.29z"/>
</g>
<path d="M239.372,306.457l30.606-45.908l35.323,13.625c0.888,0.342,1.8,0.504,2.698,0.504c3.01,0,5.851-1.826,6.999-4.803
	c1.491-3.865-0.434-8.206-4.298-9.697l-38.202-14.735l-21.927-21.926c-1.426-1.426-3.292-2.158-5.173-2.191v-17.918
	c10.377-11.025,17.75-25.021,20.668-40.801c0.006-0.007,0.013-0.015,0.02-0.021c1.91,0.113,3.838-0.027,5.744-0.417
	c10.306-2.11,17.787-11.678,17.787-22.751v-5.743c0-6.491-2.668-12.44-6.996-16.653c7.033-37.871,1.355-68.717-16.492-89.326
	C248.923,7.826,221.183-1.664,185.905,0.239c-32.856,1.776-53.958,16.993-60.433,22.358c-9.112,1.184-35.099,7.751-35.099,44.089
	c0,20.121,3.269,36.855,5.565,46.131c-7.733,3.615-12.934,11.686-12.934,20.942v5.657c0,11.073,7.48,20.641,17.788,22.751
	c1.904,0.39,3.835,0.53,5.743,0.417c0.007,0.007,0.014,0.015,0.02,0.022c2.918,15.779,10.291,29.775,20.668,40.8v17.918
	c-1.881,0.033-3.747,0.765-5.173,2.191l-21.926,21.926l-42.969,16.574c-20.664,7.97-33.951,28.193-33.065,50.323l6.103,152.379
	c0.162,4.037,3.485,7.2,7.489,7.2c0.102,0,0.204-0.002,0.306-0.006c4.139-0.166,7.359-3.655,7.194-7.794L39.079,311.74
	c-0.162-4.05,0.349-8.009,1.442-11.754l24.362,24.362c6.935,6.935,10.754,16.156,10.754,25.963v114.108c0,4.142,3.358,7.5,7.5,7.5
	s7.5-3.358,7.5-7.5V350.311c0-13.814-5.379-26.802-15.148-36.57L48,286.252c3.852-4.455,8.797-8.019,14.554-10.24l40.091-15.464
	l30.606,45.908c3.71,5.566,9.656,9.136,16.313,9.795c0.741,0.073,1.48,0.109,2.216,0.109c4.091,0,8.051-1.145,11.505-3.247
	l-6.573,150.979c-0.18,4.138,3.028,7.639,7.167,7.819c0.111,0.005,0.222,0.007,0.332,0.007c3.992,0,7.312-3.146,7.487-7.174
	l6.095-139.989h17.043l6.095,139.989c0.175,4.027,3.495,7.174,7.487,7.174c0.11,0,0.221-0.002,0.332-0.007
	c4.138-0.18,7.347-3.681,7.167-7.819l-6.573-150.979c3.454,2.102,7.413,3.247,11.504,3.247c0.735,0,1.475-0.036,2.215-0.109
	C229.715,315.594,235.661,312.023,239.372,306.457z M186.309,270.442l-44.088-38.577v-15.947
	c12.772,8.276,27.951,13.032,44.088,13.032s31.316-4.756,44.087-13.032v15.947L186.309,270.442z M105.736,147.605
	c-0.632,0.045-1.284,0.001-1.937-0.132c-3.304-0.676-5.795-4.14-5.795-8.056v-5.657c0-3.832,2.579-7.286,5.871-7.864
	c2.771-0.486,5.424,0.532,7.106,2.725c1.397,1.821,3.259,3.123,5.39,3.767c3.113,0.939,6.549,0.388,9.19-1.477
	c6.096-4.303,11.263-9.761,15.356-16.221c2.217-3.499,1.178-8.133-2.32-10.35c-3.501-2.219-8.133-1.178-10.35,2.32
	c-2.334,3.683-5.126,6.919-8.329,9.656c-2.552-2.248-5.568-3.857-8.808-4.744c-2.009-7.565-5.737-24.366-5.737-44.887
	c0-12.215,3.786-20.805,11.254-25.528c5.813-3.678,11.951-3.819,11.953-3.82c1.918,0,3.784-0.755,5.177-2.073
	c0.192-0.183,19.642-18.247,52.957-20.047c30.478-1.651,54.017,6.063,68.074,22.296c14.24,16.445,18.933,41.712,13.692,73.323
	c-2.254-0.105-4.753,0.059-7.238,0.495l-7.516-18.051c-1.439-3.456-5.208-5.321-8.828-4.371
	c-0.732,0.192-73.627,18.791-104.363-19.472c-2.593-3.229-7.314-3.745-10.544-1.15c-3.229,2.594-3.745,7.314-1.15,10.544
	c31.177,38.815,93.263,30.113,113.46,26.035l5.842,14.03c2.389,5.736,8.499,8.869,14.526,7.449c2.363-0.557,4.934-0.658,6.056-0.435
	c3.358,0.668,5.89,4.005,5.89,7.763v5.743c0,3.917-2.492,7.38-5.794,8.056c-0.655,0.134-1.305,0.178-1.938,0.132
	c-7.358-0.538-14.198,4.815-15.552,12.193c-5.764,31.378-33.109,54.152-65.021,54.152c-31.913,0-59.258-22.774-65.021-54.152
	C119.933,152.42,113.097,147.069,105.736,147.605z M151.038,301.325c-2.167-0.214-4.102-1.376-5.31-3.188l-30.834-46.252l12.8-12.8
	l47.644,41.688l-18.466,18.467C155.331,300.78,153.204,301.541,151.038,301.325z M178.441,309.757l0.495-11.369l7.373-7.374
	l7.374,7.374l0.495,11.368L178.441,309.757L178.441,309.757z M221.581,301.325c-1.274,0.129-3.724,0.022-5.832-2.085l-18.466-18.467
	l47.643-41.688l12.8,12.8l-30.834,46.251C225.683,299.949,223.748,301.111,221.581,301.325z"/>
<path d="M487.951,352.193c0-17.396-14.152-31.548-31.548-31.548H407.79v-16.548c0-12.976-10.557-23.532-23.532-23.532H336.16
	c-12.976,0-23.532,10.557-23.532,23.532v16.548h-48.613c-17.396,0-31.548,14.152-31.548,31.548v22.267
	c0,8.209,2.764,16.092,8.016,23.382v83.424c0,16.946,13.787,30.733,30.733,30.733h177.987c16.946,0,30.733-13.787,30.733-30.733
	v-83.424c5.252-7.291,8.016-15.174,8.016-23.383L487.951,352.193L487.951,352.193z M327.628,304.096
	c0-4.705,3.828-8.532,8.532-8.532h48.097c4.705,0,8.532,3.828,8.532,8.532v16.548h-65.162L327.628,304.096L327.628,304.096z
	 M449.202,497H271.216c-8.675,0-15.733-7.058-15.733-15.733v-68.793c6.936,5.037,15.342,9.571,25.081,13.468v6.414
	c0,12.976,10.557,23.532,23.532,23.532c11.145,0,20.499-7.791,22.918-18.211c10.769,1.439,21.895,2.179,33.195,2.179
	c2.74,0,5.517-0.044,8.253-0.131c4.14-0.131,7.39-3.594,7.258-7.734c-0.131-4.14-3.564-7.401-7.734-7.258
	c-2.579,0.082-5.195,0.123-7.778,0.123c-11.119,0-22.046-0.757-32.581-2.232v-14.316c0-4.142-3.358-7.5-7.5-7.5h-32.064
	c-4.142,0-7.5,3.358-7.5,7.5v1.332c-20.915-9.537-33.097-22.305-33.097-35.178v-22.267c0-9.125,7.423-16.548,16.548-16.548h192.388
	c9.125,0,16.548,7.423,16.548,16.548v22.267c0,12.874-12.182,25.641-33.097,35.178v-1.332c0-4.142-3.358-7.5-7.5-7.5h-32.064
	c-4.142,0-7.5,3.358-7.5,7.5v24.048c0,12.976,10.557,23.532,23.532,23.532s23.532-10.557,23.532-23.532v-6.414
	c9.738-3.896,18.145-8.43,25.081-13.467v68.793C464.935,489.943,457.878,497,449.202,497z M295.563,415.806h17.064v16.548
	c0,4.705-3.828,8.532-8.532,8.532c-4.704,0-8.532-3.828-8.532-8.532L295.563,415.806L295.563,415.806z M424.855,415.806v16.548
	c0,4.705-3.828,8.532-8.532,8.532s-8.532-3.828-8.532-8.532v-16.548H424.855z"/>
<g>
</g>
<g>
</g>
<g>
</g>
<g>
</g>
<g>
</g>
<g>
</g>
<g>
</g>
<g>
</g>
<g>
</g>
<g>
</g>
<g>
</g>
<g>
</g>
<g>
</g>
<g>
</g>
<g>
</g>
</svg>
