<?xml version="1.0" encoding="iso-8859-1"?>
<!-- Generator: Adobe Illustrator 19.0.0, SVG Export Plug-In . SVG Version: 6.00 Build 0)  -->
<svg xmlns="http://www.w3.org/2000/svg" xmlns:xlink="http://www.w3.org/1999/xlink" version="1.1" id="Layer_1" x="0px" y="0px" viewBox="0 0 512 512" style="enable-background:new 0 0 512 512;" xml:space="preserve" width="512" height="512">
<g>
	<g>
		<polygon style="fill:#D2D2D2;" points="256,81.266 45.227,128.256 45.227,454.369 256,479.434 466.772,454.369 466.772,128.256       "/>
		<polygon style="fill:#B8B8B8;" points="85.227,454.369 85.227,128.256 276,85.725 256,81.267 45.227,128.256 45.227,454.369     256,479.434 276,477.056   "/>
		<path style="fill:#506366;" d="M466.772,57.642v70.615H45.227V57.642C45.227,29.944,67.671,7.5,95.359,7.5h321.282    C444.329,7.5,466.772,29.944,466.772,57.642z"/>
		<path style="fill:#3A484A;" d="M135.359,7.5h-40c-27.688,0-50.132,22.444-50.132,50.142v70.615h40V57.642    C85.227,29.944,107.671,7.5,135.359,7.5z"/>
		<path style="fill:#506366;" d="M466.772,454.369c0,27.688-22.443,50.131-50.132,50.131H95.359    c-27.688,0-50.132-22.443-50.132-50.131H466.772z"/>
		<path style="fill:#3A484A;" d="M85.227,454.369h-40c0,27.688,22.443,50.131,50.132,50.131h40    C107.671,504.5,85.227,482.057,85.227,454.369z"/>
		<circle style="fill:#85E7FF;" cx="205.474" cy="67.878" r="24.252"/>
		<circle style="fill:#FD6F71;" cx="119.581" cy="67.878" r="24.252"/>
		<path style="fill:#EFEDEE;" d="M394.947,43.626h-86.267c-5.301,0-9.598,4.297-9.598,9.598v29.309c0,5.301,4.297,9.598,9.598,9.598    h86.267c5.301,0,9.598-4.297,9.598-9.598V53.224C404.545,47.923,400.248,43.626,394.947,43.626z"/>
		<circle style="fill:#506366;" cx="256" cy="291.493" r="130.356"/>
		<path style="fill:#57D0E6;" d="M350.503,305.268c0.657-4.497,0.99-9.095,0.99-13.773c0-52.739-42.755-95.493-95.493-95.493    s-95.493,42.755-95.493,95.493c0,4.679,0.333,9.276,0.99,13.773L256,331.436L350.503,305.268z"/>
		<path style="fill:#85E7FF;" d="M350.503,305.268c-6.669,46.211-46.443,81.72-94.503,81.72s-87.834-35.509-94.503-81.72l8.61-5.861    c5.184-3.527,11.176-5.295,17.179-5.295s11.995,1.768,17.179,5.295s11.176,5.295,17.179,5.295s11.995-1.768,17.179-5.295    s11.176-5.295,17.179-5.295s11.995,1.768,17.179,5.295s11.176,5.295,17.179,5.295s11.995-1.768,17.179-5.295    c10.368-7.063,23.99-7.063,34.357,0L350.503,305.268z"/>
	</g>
	<g>
		<path d="M205.47,36.126c-17.508,0-31.752,14.244-31.752,31.752c0,17.509,14.244,31.752,31.752,31.752s31.752-14.244,31.752-31.752    C237.223,50.37,222.979,36.126,205.47,36.126z M205.47,84.63c-9.237,0-16.752-7.515-16.752-16.752s7.515-16.752,16.752-16.752    s16.752,7.515,16.752,16.752S214.708,84.63,205.47,84.63z"/>
		<path d="M119.577,36.126c-17.508,0-31.752,14.244-31.752,31.752c0,17.509,14.244,31.752,31.752,31.752    s31.752-14.244,31.752-31.752C151.329,50.37,137.085,36.126,119.577,36.126z M119.577,84.63c-9.237,0-16.752-7.515-16.752-16.752    s7.515-16.752,16.752-16.752s16.752,7.515,16.752,16.752S128.814,84.63,119.577,84.63z"/>
		<path d="M394.943,36.126h-86.267c-9.428,0-17.098,7.67-17.098,17.098v29.309c0,9.428,7.67,17.098,17.098,17.098h86.267    c9.428,0,17.098-7.67,17.098-17.098V53.224C412.041,43.796,404.371,36.126,394.943,36.126z M397.041,82.533    c0,1.157-0.941,2.098-2.098,2.098h-86.267c-1.157,0-2.098-0.941-2.098-2.098V53.224c0-1.157,0.941-2.098,2.098-2.098h86.267    c1.157,0,2.098,0.941,2.098,2.098V82.533z"/>
		<path d="M255.996,153.637c-30.763,0-59.871,9.919-84.176,28.686c-3.279,2.531-3.884,7.241-1.353,10.52    c2.532,3.279,7.242,3.884,10.52,1.353c21.656-16.721,47.593-25.559,75.009-25.559c67.743,0,122.856,55.113,122.856,122.856    s-55.113,122.856-122.856,122.856S133.14,359.235,133.14,291.493c0-28.197,9.796-55.742,27.583-77.563    c2.617-3.211,2.136-7.935-1.075-10.552s-7.935-2.136-10.552,1.074c-19.962,24.489-30.957,55.401-30.957,87.041    c0,76.014,61.842,137.856,137.856,137.856s137.856-61.842,137.856-137.856S332.01,153.637,255.996,153.637z"/>
		<path d="M474.269,453.778V57.642C474.269,25.858,448.415,0,416.637,0H95.355C63.577,0,37.723,25.858,37.723,57.642l0,396.727    c0,31.778,25.854,57.631,57.631,57.631h321.282c31.493,0,57.152-25.396,57.61-56.782    C474.279,454.939,474.284,453.974,474.269,453.778z M52.723,57.642C52.723,34.129,71.848,15,95.355,15h321.282    c23.507,0,42.632,19.129,42.632,42.642v63.115H52.723V57.642z M416.637,497H95.355c-20.949,0-38.417-15.188-41.971-35.131h313.794    c4.142,0,7.5-3.358,7.5-7.5s-3.358-7.5-7.5-7.5H52.724V135.756h406.545v311.112h-62.09c-4.142,0-7.5,3.358-7.5,7.5    s3.358,7.5,7.5,7.5h61.43C455.054,481.812,437.586,497,416.637,497z"/>
		<path d="M154.071,306.351c0,0.004,0.002,0.007,0.002,0.011c3.507,24.259,15.657,46.542,34.217,62.745    c18.747,16.367,42.792,25.381,67.705,25.381s48.958-9.014,67.706-25.381c18.558-16.202,30.708-38.482,34.216-62.74    c0.001-0.005,0.002-0.01,0.003-0.015c0.709-4.856,1.069-9.855,1.069-14.857c0-56.791-46.203-102.993-102.993-102.993    c-56.791,0-102.994,46.203-102.994,102.993C153.003,296.492,153.362,301.491,154.071,306.351z M313.836,357.807    c-16.015,13.981-36.556,21.681-57.841,21.681s-41.826-7.7-57.84-21.681c-14.694-12.828-24.687-30.107-28.458-49.052l4.624-3.147    c7.728-5.258,18.186-5.262,25.919,0c12.768,8.688,30.024,8.69,42.795,0c7.716-5.247,18.203-5.251,25.919,0    c12.773,8.691,30.023,8.689,42.799-0.002c7.746-5.269,18.173-5.272,25.914,0.001l4.625,3.148    C338.523,327.699,328.531,344.979,313.836,357.807z M255.996,203.501c48.52,0,87.993,39.474,87.993,87.993    c0,0.122,0,0.245-0.001,0.367c-0.053-0.031-0.109-0.058-0.163-0.089c-4.026-2.342-8.426-3.849-13.005-4.654    c-5.731-1.008-11.766-0.539-17.317,1.174c-3.619,1.117-7.063,2.782-10.192,4.914c-7.735,5.263-18.194,5.255-25.919,0    c-6.341-4.314-13.74-6.595-21.397-6.595c-7.609,0-15.108,2.316-21.398,6.594c-7.748,5.27-18.175,5.267-25.919,0    c-6.341-4.314-13.74-6.595-21.397-6.595c-6.645,0-13.379,1.792-19.116,5.163c-0.053,0.031-0.109,0.057-0.162,0.088    c-0.001-0.123-0.001-0.245-0.001-0.368C168.003,242.975,207.476,203.501,255.996,203.501z"/>
	</g>
</g>















</svg>
